<svg xmlns="http://www.w3.org/2000/svg" viewBox="0 0 320 96" role="img" aria-labelledby="title desc">
  <title id="title">9Router logo</title>
  <desc id="desc">A compact 9Router mark with signal routes and wordmark.</desc>
  <defs>
    <linearGradient id="markGradient" x1="36" x2="94" y1="18" y2="78" gradientUnits="userSpaceOnUse">
      <stop offset="0" stop-color="#00a878"/>
      <stop offset="0.52" stop-color="#1f7aeb"/>
      <stop offset="1" stop-color="#111827"/>
    </linearGradient>
  </defs>
  <rect width="320" height="96" rx="20" fill="#ffffff"/>
  <g transform="translate(18 14)">
    <rect width="68" height="68" rx="18" fill="url(#markGradient)"/>
    <path d="M34 17c-11.2 0-20 8.1-20 18.3 0 9.6 7.7 17.1 17.8 17.1 4.8 0 8.6-1.3 11.2-3.9-1.2 7.2-6.7 11.6-15.1 12.5" fill="none" stroke="#ffffff" stroke-width="8" stroke-linecap="round"/>
    <path d="M40 31h12.5c5.2 0 8.5 3.1 8.5 7.4 0 4.5-3.3 7.6-8.5 7.6H40V31Z" fill="#ffffff"/>
    <path d="M49 46l12 14" fill="none" stroke="#ffffff" stroke-width="7" stroke-linecap="round"/>
    <circle cx="28" cy="35" r="5.5" fill="#ffffff"/>
    <path d="M74 20c9.6 6.8 15.8 16 15.8 28S83.6 69.2 74 76" fill="none" stroke="#00a878" stroke-width="5" stroke-linecap="round"/>
    <path d="M82 11c13.6 9.5 22.5 22 22.5 37S95.6 75.5 82 85" fill="none" stroke="#1f7aeb" stroke-width="4" stroke-linecap="round"/>
  </g>
  <g fill="#111827" font-family="Inter, Segoe UI, Arial, sans-serif">
    <text x="112" y="48" font-size="34" font-weight="800">9Router</text>
    <text x="114" y="70" font-size="13" font-weight="700" fill="#475569" letter-spacing="1.7">IMAGE TOOL</text>
  </g>
</svg>
