<svg xmlns="http://www.w3.org/2000/svg" viewBox="0 0 256 256">
  <defs>
    <linearGradient id="bg" x1="36" x2="222" y1="24" y2="226" gradientUnits="userSpaceOnUse">
      <stop stop-color="#facc15"/>
      <stop offset=".48" stop-color="#22c55e"/>
      <stop offset="1" stop-color="#06b6d4"/>
    </linearGradient>
  </defs>
  <rect width="256" height="256" rx="58" fill="#0a0e1a"/>
  <rect x="20" y="20" width="216" height="216" rx="48" fill="url(#bg)"/>
  <path d="M52 84a22 22 0 0 1 22-22h39l20 22h49a22 22 0 0 1 22 22v73a22 22 0 0 1-22 22H74a22 22 0 0 1-22-22z" fill="#fff" opacity=".94"/>
  <path d="M77 120h102M77 145h72M77 170h92" stroke="#0a0e1a" stroke-width="13" stroke-linecap="round" opacity=".78"/>
  <circle cx="183" cy="174" r="16" fill="#06b6d4"/>
  <text x="128" y="228" text-anchor="middle" font-family="Arial, sans-serif" font-size="18" font-weight="900" fill="#fff" opacity=".95">FILES PRO</text>
</svg>
