<svg xmlns="http://www.w3.org/2000/svg" width="1280" height="720" viewBox="0 0 1280 720" role="img" aria-labelledby="title desc">
  <title id="title">Generated YouTube thumbnail example one</title>
  <desc id="desc">A bold generated YouTube thumbnail layout with large Vietnamese text.</desc>
  <defs>
    <linearGradient id="bg" x1="0" y1="0" x2="1" y2="1">
      <stop offset="0" stop-color="#08111f"/>
      <stop offset=".58" stop-color="#123a87"/>
      <stop offset="1" stop-color="#1463ff"/>
    </linearGradient>
    <filter id="shadow" x="-20%" y="-20%" width="140%" height="140%">
      <feDropShadow dx="0" dy="18" stdDeviation="16" flood-color="#000000" flood-opacity=".35"/>
    </filter>
  </defs>
  <rect width="1280" height="720" fill="url(#bg)"/>
  <circle cx="1058" cy="238" r="220" fill="#ffffff" opacity=".12"/>
  <circle cx="968" cy="334" r="132" fill="#f4b183"/>
  <path d="M734 720c34-177 125-266 274-266s238 89 267 266z" fill="#07101d"/>
  <path d="M756 720c30-146 111-219 244-219s212 73 238 219z" fill="#1d4ed8"/>
  <rect x="68" y="70" width="170" height="42" rx="21" fill="#22c55e"/>
  <text x="153" y="98" text-anchor="middle" font-family="Arial, sans-serif" font-size="24" font-weight="800" fill="#052e16">AI TOOL</text>
  <text x="70" y="252" font-family="Arial Black, Arial, sans-serif" font-size="92" font-weight="900" fill="#ffffff" filter="url(#shadow)">TAO</text>
  <text x="70" y="350" font-family="Arial Black, Arial, sans-serif" font-size="92" font-weight="900" fill="#ffffff" filter="url(#shadow)">THUMBNAIL</text>
  <text x="70" y="448" font-family="Arial Black, Arial, sans-serif" font-size="92" font-weight="900" fill="#facc15" filter="url(#shadow)">NHANH HON</text>
  <rect x="74" y="500" width="520" height="72" rx="18" fill="#ffffff"/>
  <text x="334" y="547" text-anchor="middle" font-family="Arial, sans-serif" font-size="34" font-weight="900" fill="#123a87">Dung phong cach kenh</text>
</svg>
