<svg xmlns="http://www.w3.org/2000/svg" width="1280" height="720" viewBox="0 0 1280 720" role="img" aria-labelledby="title desc">
  <title id="title">Generated YouTube thumbnail example two</title>
  <desc id="desc">A generated YouTube thumbnail variation with warm colors and large hook text.</desc>
  <defs>
    <linearGradient id="bg" x1="0" y1="0" x2="1" y2="1">
      <stop offset="0" stop-color="#420a14"/>
      <stop offset=".55" stop-color="#e11d48"/>
      <stop offset="1" stop-color="#f97316"/>
    </linearGradient>
    <filter id="shadow" x="-20%" y="-20%" width="140%" height="140%">
      <feDropShadow dx="0" dy="18" stdDeviation="16" flood-color="#000000" flood-opacity=".36"/>
    </filter>
  </defs>
  <rect width="1280" height="720" fill="url(#bg)"/>
  <path d="M0 575c190-120 366-132 528-36s326 96 492 0 253-68 260-52v233H0z" fill="#111827" opacity=".74"/>
  <circle cx="946" cy="286" r="94" fill="#f4b183"/>
  <path d="M752 720c24-170 91-255 202-255s182 85 213 255z" fill="#0f172a"/>
  <rect x="742" y="74" width="420" height="86" rx="22" fill="#ffffff"/>
  <text x="952" y="129" text-anchor="middle" font-family="Arial Black, Arial, sans-serif" font-size="42" fill="#e11d48">TRUOC / SAU</text>
  <text x="72" y="232" font-family="Arial Black, Arial, sans-serif" font-size="84" font-weight="900" fill="#ffffff" filter="url(#shadow)">DUNG LAM</text>
  <text x="72" y="324" font-family="Arial Black, Arial, sans-serif" font-size="84" font-weight="900" fill="#ffffff" filter="url(#shadow)">THU CONG</text>
  <text x="72" y="416" font-family="Arial Black, Arial, sans-serif" font-size="84" font-weight="900" fill="#fde047" filter="url(#shadow)">NUA!</text>
  <rect x="74" y="472" width="455" height="58" rx="16" fill="#ffffff" opacity=".18"/>
  <text x="301" y="512" text-anchor="middle" font-family="Arial, sans-serif" font-size="30" font-weight="900" fill="#ffffff">Tao nhieu bien the de chon</text>
</svg>
