<svg xmlns="http://www.w3.org/2000/svg" viewBox="0 0 128 128" role="img" aria-labelledby="title desc">
  <title id="title">DG Image Tools logo</title>
  <desc id="desc">Square logo mark for DG Image Tools based on the 9Router signal icon.</desc>
  <defs>
    <linearGradient id="g" x1="16" x2="112" y1="16" y2="112" gradientUnits="userSpaceOnUse">
      <stop offset="0" stop-color="#00a878"/>
      <stop offset="0.52" stop-color="#1f7aeb"/>
      <stop offset="1" stop-color="#111827"/>
    </linearGradient>
  </defs>
  <rect width="128" height="128" rx="24" fill="#ffffff"/>
  <g transform="translate(20 20)">
    <rect width="88" height="88" rx="22" fill="url(#g)"/>
    <path d="M44 22c-14.5 0-27 10.5-27 24.4 0 12.8 10.2 22.8 23.6 22.8 6.4 0 11.5-1.7 15-5.2-1.4 9.6-8.6 15.5-20 16.8" fill="none" stroke="#ffffff" stroke-width="9" stroke-linecap="round"/>
    <path d="M51 38h16c6.4 0 10.5 3.8 10.5 9.3 0 5.7-4.1 9.6-10.5 9.6H51V38Z" fill="#ffffff"/>
    <path d="M63 56l14.5 17" fill="none" stroke="#ffffff" stroke-width="8" stroke-linecap="round"/>
    <circle cx="35" cy="46" r="6.5" fill="#ffffff"/>
  </g>
</svg>
