<svg xmlns="http://www.w3.org/2000/svg" viewBox="0 0 128 128" role="img" aria-labelledby="title desc">
  <title id="title">DUCPT DX logo</title>
  <desc id="desc">Rounded DX mark for DUCPT portfolio</desc>
  <defs>
    <linearGradient id="g" x1="20" y1="12" x2="108" y2="116" gradientUnits="userSpaceOnUse">
      <stop stop-color="#ffffff"/>
      <stop offset=".42" stop-color="#ffd166"/>
      <stop offset=".72" stop-color="#ff6b13"/>
      <stop offset="1" stop-color="#35d5ff"/>
    </linearGradient>
    <filter id="s" x="-20%" y="-20%" width="140%" height="140%">
      <feDropShadow dx="0" dy="14" stdDeviation="10" flood-color="#000000" flood-opacity=".32"/>
    </filter>
  </defs>
  <rect width="128" height="128" rx="34" fill="#05070c"/>
  <rect x="10" y="10" width="108" height="108" rx="29" fill="url(#g)" filter="url(#s)"/>
  <path d="M30 37h22c16 0 27 10 27 27s-11 27-27 27H30V37Zm21 39c7 0 12-4 12-12s-5-12-12-12h-5v24h5Zm29-39h17l-15 26 16 28H81l-8-16-8 16H48l16-28-15-26h17l7 15 7-15Z" fill="#05070c"/>
</svg>
