<svg xmlns="http://www.w3.org/2000/svg" viewBox="0 0 512 512" role="img" aria-labelledby="t"><title id="t">HVD monogram</title><defs><linearGradient id="n" x1="0" y1="0" x2="1" y2="1"><stop stop-color="#173b6d"/><stop offset="1" stop-color="#061a36"/></linearGradient><linearGradient id="g" x1="0" y1="0" x2="1" y2="1"><stop stop-color="#f4db86"/><stop offset=".42" stop-color="#c89b3c"/><stop offset="1" stop-color="#765019"/></linearGradient><filter id="s"><feDropShadow dx="0" dy="12" stdDeviation="10" flood-opacity=".24"/></filter></defs><g filter="url(#s)" stroke-linejoin="round"><path fill="url(#n)" d="M70 126h74v100h94V82h72v348h-72V294h-94v136H70z"/><path fill="url(#n)" d="M300 82h78c86 0 116 70 116 174s-30 174-116 174h-78v-70h66c39 0 52-35 52-104s-13-104-52-104h-66z"/><path fill="url(#g)" stroke="#6d4a16" stroke-width="7" d="M118 168h78l62 164 62-164h78L291 438h-67z"/><path fill="none" stroke="#f8e7aa" stroke-width="8" opacity=".7" d="M150 184h31l75 199 79-199h31"/></g></svg>
