<svg xmlns="http://www.w3.org/2000/svg" width="1200" height="750" viewBox="0 0 1200 750">
  <defs>
    <linearGradient id="bg" x1="0" x2="1" y1="0" y2="1">
      <stop offset="0" stop-color="#06111d"/>
      <stop offset=".56" stop-color="#111827"/>
      <stop offset="1" stop-color="#0b0f17"/>
    </linearGradient>
    <filter id="shadow" x="-20%" y="-20%" width="140%" height="140%">
      <feDropShadow dx="0" dy="34" stdDeviation="32" flood-color="#000" flood-opacity=".38"/>
    </filter>
  </defs>
  <rect width="1200" height="750" fill="url(#bg)"/>
  <circle cx="1040" cy="118" r="290" fill="#64e89f" opacity=".2"/>
  <circle cx="156" cy="642" r="320" fill="#ffd166" opacity=".18"/>
  <g opacity=".18">
    <path d="M0 110 H1200 M0 230 H1200 M0 350 H1200 M0 470 H1200 M0 590 H1200" stroke="#fff"/>
    <path d="M140 0 V750 M300 0 V750 M460 0 V750 M620 0 V750 M780 0 V750 M940 0 V750 M1100 0 V750" stroke="#fff"/>
  </g>
  <g filter="url(#shadow)">
    
      <rect x="96" y="142" width="250" height="478" rx="30" fill="#0f1724" stroke="rgba(255,255,255,.14)"/>
      <rect x="128" y="182" width="120" height="18" rx="9" fill="#64e89f"/>
      <rect x="128" y="232" width="178" height="16" rx="8" fill="#ffffff" opacity=".58"/>
      <rect x="128" y="276" width="144" height="16" rx="8" fill="#ffffff" opacity=".24"/>
      <rect x="128" y="320" width="170" height="16" rx="8" fill="#ffffff" opacity=".24"/>
      <rect x="128" y="410" width="160" height="70" rx="20" fill="#ffd166" opacity=".85"/>
      <rect x="128" y="500" width="110" height="16" rx="8" fill="#ffffff" opacity=".32"/>
      <rect x="128" y="532" width="154" height="16" rx="8" fill="#ffffff" opacity=".18"/>
      <rect x="390" y="142" width="714" height="184" rx="34" fill="#111b2a" stroke="rgba(255,255,255,.14)"/>
      <rect x="430" y="186" width="170" height="22" rx="11" fill="#fff" opacity=".8"/>
      <rect x="430" y="232" width="290" height="18" rx="9" fill="#fff" opacity=".2"/>
      <rect x="792" y="184" width="244" height="86" rx="24" fill="#64e89f" opacity=".88"/>
      <rect x="390" y="366" width="338" height="254" rx="34" fill="#111b2a" stroke="rgba(255,255,255,.14)"/>
      <rect x="772" y="366" width="332" height="254" rx="34" fill="#111b2a" stroke="rgba(255,255,255,.14)"/>
      <path d="M438 560 C496 456 554 518 612 420 C648 360 678 404 704 386" fill="none" stroke="#64e89f" stroke-width="18" stroke-linecap="round"/>
      <rect x="820" y="418" width="220" height="26" rx="13" fill="#fff" opacity=".22"/>
      <rect x="820" y="468" width="168" height="26" rx="13" fill="#ffd166" opacity=".82"/>
      <rect x="820" y="518" width="204" height="26" rx="13" fill="#fff" opacity=".16"/>
  </g>
  <rect x="70" y="54" width="1060" height="642" rx="50" fill="none" stroke="#fff" opacity=".08"/>
  <text x="96" y="86" fill="#64e89f" font-family="Inter, Arial, sans-serif" font-size="20" font-weight="900" letter-spacing="4">ADMIN SYSTEM</text>
  <text x="96" y="692" fill="#fff" font-family="Inter, Arial, sans-serif" font-size="48" font-weight="900">License &amp; Billing</text>
  <text x="96" y="724" fill="#c9d3df" font-family="Inter, Arial, sans-serif" font-size="22" font-weight="700">Customers, invoices, activation status, audit log</text>
</svg>