<svg xmlns="http://www.w3.org/2000/svg" width="1200" height="750" viewBox="0 0 1200 750">
  <defs>
    <linearGradient id="bg" x1="0" x2="1" y1="0" y2="1">
      <stop offset="0" stop-color="#06111d"/>
      <stop offset=".56" stop-color="#111827"/>
      <stop offset="1" stop-color="#0b0f17"/>
    </linearGradient>
    <filter id="shadow" x="-20%" y="-20%" width="140%" height="140%">
      <feDropShadow dx="0" dy="34" stdDeviation="32" flood-color="#000" flood-opacity=".38"/>
    </filter>
  </defs>
  <rect width="1200" height="750" fill="url(#bg)"/>
  <circle cx="1040" cy="118" r="290" fill="#35d5ff" opacity=".2"/>
  <circle cx="156" cy="642" r="320" fill="#ff7598" opacity=".18"/>
  <g opacity=".18">
    <path d="M0 110 H1200 M0 230 H1200 M0 350 H1200 M0 470 H1200 M0 590 H1200" stroke="#fff"/>
    <path d="M140 0 V750 M300 0 V750 M460 0 V750 M620 0 V750 M780 0 V750 M940 0 V750 M1100 0 V750" stroke="#fff"/>
  </g>
  <g filter="url(#shadow)">
    
      <rect x="96" y="124" width="1008" height="520" rx="42" fill="#111827" stroke="rgba(255,255,255,.16)"/>
      <rect x="138" y="168" width="560" height="334" rx="34" fill="#0b1220"/>
      <rect x="166" y="196" width="504" height="278" rx="26" fill="#35d5ff" opacity=".26"/>
      <circle cx="302" cy="330" r="92" fill="#ff7598" opacity=".88"/>
      <path d="M282 278 l118 68 -118 68z" fill="#fff"/>
      <rect x="746" y="174" width="286" height="78" rx="24" fill="#fff" opacity=".12"/>
      <rect x="746" y="290" width="286" height="78" rx="24" fill="#fff" opacity=".12"/>
      <rect x="746" y="406" width="286" height="78" rx="24" fill="#fff" opacity=".12"/>
      <rect x="174" y="548" width="152" height="28" rx="14" fill="#fff" opacity=".38"/>
      <rect x="356" y="548" width="270" height="28" rx="14" fill="#35d5ff" opacity=".82"/>
  </g>
  <rect x="70" y="54" width="1060" height="642" rx="50" fill="none" stroke="#fff" opacity=".08"/>
  <text x="96" y="86" fill="#35d5ff" font-family="Inter, Arial, sans-serif" font-size="20" font-weight="900" letter-spacing="4">CONTENT CHANNEL</text>
  <text x="96" y="692" fill="#fff" font-family="Inter, Arial, sans-serif" font-size="48" font-weight="900">Social Proof Hub</text>
  <text x="96" y="724" fill="#c9d3df" font-family="Inter, Arial, sans-serif" font-size="22" font-weight="700">Reels, shorts, public profile, content grid</text>
</svg>