<svg xmlns="http://www.w3.org/2000/svg" viewBox="0 0 256 256">
  <defs>
    <linearGradient id="bg" x1="34" x2="222" y1="28" y2="224" gradientUnits="userSpaceOnUse">
      <stop stop-color="#ef4444"/>
      <stop offset=".52" stop-color="#ec4899"/>
      <stop offset="1" stop-color="#f97316"/>
    </linearGradient>
  </defs>
  <rect width="256" height="256" rx="58" fill="#0a0e1a"/>
  <rect x="20" y="20" width="216" height="216" rx="48" fill="url(#bg)"/>
  <circle cx="128" cy="113" r="58" fill="#fff" opacity=".95"/>
  <path d="M119 160c-7 35-14 50-25 66" stroke="#fff" stroke-width="16" stroke-linecap="round"/>
  <path d="M128 66c-31 0-54 22-54 52 0 20 11 34 27 34 12 0 17-8 20-22l7-34h19l-7 35c-2 10 2 17 13 17 15 0 27-13 27-34 0-28-21-48-52-48z" fill="#0a0e1a" opacity=".88"/>
  <path d="M181 68l16-18m0 0 16 18m-16-18v55" stroke="#fff" stroke-width="12" stroke-linecap="round" stroke-linejoin="round"/>
  <text x="128" y="228" text-anchor="middle" font-family="Arial, sans-serif" font-size="18" font-weight="900" fill="#fff" opacity=".95">AUTOPOST</text>
</svg>
