<svg xmlns="http://www.w3.org/2000/svg" width="1200" height="750" viewBox="0 0 1200 750">
  <defs>
    <linearGradient id="bg" x1="0" x2="1" y1="0" y2="1">
      <stop offset="0" stop-color="#06111d"/>
      <stop offset=".56" stop-color="#111827"/>
      <stop offset="1" stop-color="#0b0f17"/>
    </linearGradient>
    <filter id="shadow" x="-20%" y="-20%" width="140%" height="140%">
      <feDropShadow dx="0" dy="34" stdDeviation="32" flood-color="#000" flood-opacity=".38"/>
    </filter>
  </defs>
  <rect width="1200" height="750" fill="url(#bg)"/>
  <circle cx="1040" cy="118" r="290" fill="#35d5ff" opacity=".2"/>
  <circle cx="156" cy="642" r="320" fill="#ffffff" opacity=".18"/>
  <g opacity=".18">
    <path d="M0 110 H1200 M0 230 H1200 M0 350 H1200 M0 470 H1200 M0 590 H1200" stroke="#fff"/>
    <path d="M140 0 V750 M300 0 V750 M460 0 V750 M620 0 V750 M780 0 V750 M940 0 V750 M1100 0 V750" stroke="#fff"/>
  </g>
  <g filter="url(#shadow)">
    
      <rect x="114" y="120" width="972" height="524" rx="44" fill="#101827" stroke="rgba(255,255,255,.16)"/>
      <path d="M258 262 H486 Q526 262 526 302 V356 Q526 396 566 396 H788" fill="none" stroke="#35d5ff" stroke-width="18" stroke-linecap="round"/>
      <path d="M258 488 H486 Q526 488 526 448 V396" fill="none" stroke="#ffffff" stroke-width="18" stroke-linecap="round"/>
      <rect x="164" y="202" width="206" height="118" rx="30" fill="#fff" opacity=".12"/>
      <rect x="164" y="428" width="206" height="118" rx="30" fill="#fff" opacity=".12"/>
      <rect x="452" y="338" width="206" height="118" rx="30" fill="#fff" opacity=".12"/>
      <rect x="800" y="318" width="236" height="158" rx="34" fill="#35d5ff" opacity=".8"/>
      <circle cx="267" cy="261" r="28" fill="#35d5ff"/><circle cx="267" cy="487" r="28" fill="#ffffff"/><circle cx="555" cy="397" r="28" fill="#64e89f"/>
  </g>
  <rect x="70" y="54" width="1060" height="642" rx="50" fill="none" stroke="#fff" opacity=".08"/>
  <text x="96" y="86" fill="#35d5ff" font-family="Inter, Arial, sans-serif" font-size="20" font-weight="900" letter-spacing="4">COMING NEXT</text>
  <text x="96" y="692" fill="#fff" font-family="Inter, Arial, sans-serif" font-size="48" font-weight="900">New Project Slot</text>
  <text x="96" y="724" fill="#c9d3df" font-family="Inter, Arial, sans-serif" font-size="22" font-weight="700">Ready card for next app, demo link or product</text>
</svg>