<svg xmlns="http://www.w3.org/2000/svg" viewBox="0 0 128 128">
  <rect width="128" height="128" rx="24" fill="#E60023"/>
  <path d="M64 16C37.49 16 16 37.49 16 64c0 20.34 12.65 37.7 30.51 44.7-.42-3.8-.8-9.62.17-13.76.87-3.75 5.63-23.86 5.63-23.86s-1.44-2.88-1.44-7.13c0-6.67 3.87-11.66 8.68-11.66 4.09 0 6.07 3.07 6.07 6.76 0 4.12-2.62 10.27-3.98 15.98-1.13 4.78 2.4 8.68 7.11 8.68 8.53 0 15.09-9 15.09-21.98 0-11.49-8.26-19.53-20.05-19.53-13.65 0-21.67 10.24-21.67 20.83 0 4.12 1.59 8.55 3.57 10.95a1.44 1.44 0 0 1 .33 1.38l-1.33 5.44c-.21.88-.7 1.07-1.61.64-5.99-2.79-9.74-11.56-9.74-18.6 0-15.14 11-29.05 31.72-29.05 16.65 0 29.59 11.87 29.59 27.72 0 16.55-10.43 29.86-24.91 29.86-4.86 0-9.44-2.53-11-5.51l-2.99 11.41c-1.08 4.17-4.01 9.4-5.97 12.58 4.5 1.39 9.27 2.14 14.22 2.14 26.51 0 48-21.49 48-48S90.51 16 64 16z" fill="white"/>
</svg>
