<svg xmlns="http://www.w3.org/2000/svg" width="1200" height="750" viewBox="0 0 1200 750">
  <defs>
    <linearGradient id="bg" x1="0" x2="1" y1="0" y2="1">
      <stop offset="0" stop-color="#06111d"/>
      <stop offset=".56" stop-color="#111827"/>
      <stop offset="1" stop-color="#0b0f17"/>
    </linearGradient>
    <filter id="shadow" x="-20%" y="-20%" width="140%" height="140%">
      <feDropShadow dx="0" dy="34" stdDeviation="32" flood-color="#000" flood-opacity=".38"/>
    </filter>
  </defs>
  <rect width="1200" height="750" fill="url(#bg)"/>
  <circle cx="1040" cy="118" r="290" fill="#ffd166" opacity=".2"/>
  <circle cx="156" cy="642" r="320" fill="#64e89f" opacity=".18"/>
  <g opacity=".18">
    <path d="M0 110 H1200 M0 230 H1200 M0 350 H1200 M0 470 H1200 M0 590 H1200" stroke="#fff"/>
    <path d="M140 0 V750 M300 0 V750 M460 0 V750 M620 0 V750 M780 0 V750 M940 0 V750 M1100 0 V750" stroke="#fff"/>
  </g>
  <g filter="url(#shadow)">
    
      <rect x="116" y="118" width="968" height="520" rx="42" fill="#101827" stroke="rgba(255,255,255,.16)"/>
      <rect x="160" y="164" width="418" height="392" rx="34" fill="#fff" opacity=".08"/>
      <rect x="196" y="210" width="258" height="32" rx="16" fill="#ffd166"/>
      <rect x="196" y="282" width="326" height="42" rx="21" fill="#fff" opacity=".88"/>
      <rect x="196" y="354" width="292" height="20" rx="10" fill="#fff" opacity=".24"/>
      <rect x="196" y="394" width="230" height="20" rx="10" fill="#fff" opacity=".18"/>
      <rect x="196" y="468" width="170" height="62" rx="24" fill="#64e89f"/>
      <rect x="628" y="164" width="366" height="172" rx="34" fill="#ffd166" opacity=".34"/>
      <rect x="628" y="376" width="160" height="160" rx="34" fill="#fff" opacity=".11"/>
      <rect x="830" y="376" width="164" height="160" rx="34" fill="#64e89f" opacity=".68"/>
  </g>
  <rect x="70" y="54" width="1060" height="642" rx="50" fill="none" stroke="#fff" opacity=".08"/>
  <text x="96" y="86" fill="#ffd166" font-family="Inter, Arial, sans-serif" font-size="20" font-weight="900" letter-spacing="4">LANDING TEMPLATE</text>
  <text x="96" y="692" fill="#fff" font-family="Inter, Arial, sans-serif" font-size="48" font-weight="900">Mini Product Page</text>
  <text x="96" y="724" fill="#c9d3df" font-family="Inter, Arial, sans-serif" font-size="22" font-weight="700">Hero, pricing, FAQ, checkout and waitlist</text>
</svg>